# xmcd
#
# Track frame offsets:
#	150
#	15252
#	30806
#	52093
#	70702
#	84501
#	101361
#	120106
#	132344
#	153220
#	165155
#	179490
#
# Disc length: 2637 seconds
#
# Revision: 0
# Processed by: cddbd v1.5.2PL0 Copyright (c) Steve Scherf et al.
# Submitted via: audiograbber 1.83.01
#
DISCID=7b0a4b0c
DTITLE=Micky and The Motorcars - Ain't In It For The Money
DYEAR=2004
DGENRE=Country
TTITLE0=Little Baby
TTITLE1=Follow You Down
TTITLE2=July, You're A Woman
TTITLE3=Other Side Of Town
TTITLE4=Baby Tonight
TTITLE5=Million Miles
TTITLE6=Miserable Year
TTITLE7=Wasted Time
TTITLE8=Goodbye Lady
TTITLE9=Ain't In It For The Money
TTITLE10=Pointless Love
TTITLE11=Holdin' On, Long Gone
EXTD=
EXTT0=
EXTT1=
EXTT2=
EXTT3=
EXTT4=
EXTT5=
EXTT6=
EXTT7=
EXTT8=
EXTT9=
EXTT10=
EXTT11=
PLAYORDER=
